<?xml version="1.0" encoding="utf-8"?>
<!-- Generator: Adobe Illustrator 27.0.0, SVG Export Plug-In . SVG Version: 6.00 Build 0)  -->
<svg version="1.1" id="Layer_1" xmlns="http://www.w3.org/2000/svg" xmlns:xlink="http://www.w3.org/1999/xlink" x="0px" y="0px"
	 viewBox="0 0 5000 3000" style="enable-background:new 0 0 5000 3000;" xml:space="preserve">
<style type="text/css">
	.st0{fill:#15515C;stroke:#25CFFF;stroke-width:2;stroke-miterlimit:10;}
	.st1{fill:#15515C;}
	.st2{fill:#15515C;stroke:#25CFFF;stroke-width:4;stroke-miterlimit:10;}
	.st3{fill:#FFFFFF;}
	.st4{fill:#424D53;}
	.st5{opacity:0.31;}
	.st6{fill:url(#SVGID_1_);}
	.st7{opacity:0.31;fill:url(#SVGID_00000042696752196026825300000011150617631094098596_);}
	.st8{opacity:0.31;fill:#76C100;}
	.st9{fill:url(#SVGID_00000139980898784794192770000007531503008731357857_);}
	.st10{opacity:0.31;fill:url(#SVGID_00000058565936512822339010000014345854365175858338_);}
	.st11{fill:#ABCEC8;}
	.st12{fill:#346861;}
	.st13{fill:#40C400;stroke:#25CFFF;stroke-width:4;stroke-miterlimit:10;}
</style>
<g>
	<g>
		<g>
			<path class="st0" d="M2917.28,1324.41h-768.57C2392.52,1212.15,2673.47,1212.15,2917.28,1324.41z"/>
			<path class="st1" d="M2917.28,1324.41h-768.57C2392.52,1212.15,2673.47,1212.15,2917.28,1324.41z"/>
			<path class="st2" d="M3184.65,1826.74v-263.16c11.56-11.32,18.65-27.15,18.65-44.59c0-2.53-0.16-5.09-0.47-7.65v-24.56
				l53.9-89.26h-248.98v-73.12h-27.5l3.24-13.02c-138.21-73.42-293.99-112.24-450.49-112.24c-156.5,0-312.28,38.82-450.48,112.24
				l3.24,13.02h-27.49v73.42h-251.65l52.01,86.15v27.3c-0.31,2.54-0.47,5.12-0.47,7.7c0,17.44,7.08,33.27,18.65,44.6v263.14
				c-3.65,3.02-7.2,6.3-10.67,9.82l-11.75,11.98v88.79h143.85v44.96H3063.2v-44.96h143.87v-88.82l-11.78-11.98
				C3191.83,1833.02,3188.28,1829.76,3184.65,1826.74z M2148.71,1324.41c243.81-112.26,524.76-112.26,768.57,0H2148.71z"/>
		</g>
		<g>
			<g>
				<g>
					<rect x="2099.33" y="1365.46" class="st3" width="867.36" height="53.2"/>
				</g>
				<g>
					<path class="st3" d="M2101.77,1347.66L2101.77,1347.66l862.47,0l-0.02-0.01C2694.59,1204.4,2371.41,1204.4,2101.77,1347.66z"/>
				</g>
				<g>
					<polygon class="st3" points="2960.91,1438.91 2960.91,1483.96 2101.99,1483.7 2101.99,1438.91 					"/>
				</g>
				<g>
					<path class="st3" d="M2672.05,1858.2h-282.65V1664.6c0-78.05,63.27-141.33,141.33-141.33h0c78.05,0,141.33,63.27,141.33,141.33
						V1858.2z M2960.18,1896.19v-37.99h-77.97v-389.25l-51.07-19.68l0.59,408.93h-136.86v-334.92h28.85v-40.8h-385.97v40.8h28.85
						v334.92h-136.87l-0.32-400.18l-50.17,9.47v390.71h-77.97v37.99h-61.96v45.03h982.86v-45.03H2960.18z"/>
				</g>
			</g>
			<g>
				<g>
					<g>
						<polygon class="st3" points="1879.36,1438.89 2322.47,1438.89 2322.47,1479.92 1904.14,1479.92 						"/>
						<g>
							<path class="st3" d="M1996.74,1522.59h204.33c0,1.44-2.19,6.12-2.19,6.12l3.76-34.92h-302.95v20.7
								c-0.31,1.45-0.48,2.96-0.48,4.5c0,10.94,8.17,19.92,18.64,21.01v308.51c-7.34,3.68-14.86,9.12-22.41,16.8v30.96h256.24
								c0,0-2.48-32.04-3.54-30.96h-150.77c0,0-8.04-8.41-21-15.13v-310.54C1986.47,1539.64,1994.88,1532.31,1996.74,1522.59z
								 M1941.92,1842.02v-305.26h10.38v305.67C1948.96,1842,1945.49,1841.84,1941.92,1842.02z"/>
						</g>
					</g>
					<g>
						<path class="st3" d="M2122.19,1549.47h-60.17v303.35h16.75v-287.99h43.18C2121.95,1564.83,2121.6,1548.87,2122.19,1549.47z"/>
						<path class="st3" d="M2047.39,1549.47h-60.17v303.35h16.75v-287.99h43.18C2047.16,1564.83,2046.8,1548.87,2047.39,1549.47z"/>
					</g>
				</g>
				<g>
					<g>
						<polygon class="st3" points="3183.98,1438.58 2740.87,1438.58 2740.87,1479.62 3159.2,1479.62 						"/>
						<g>
							<path class="st3" d="M3085.08,1539.64v310.54c-12.95,6.72-21,15.13-21,15.13h-150.77c-1.06-1.08-3.54,30.96-3.54,30.96
								h256.24v-30.96c-7.55-7.68-15.08-13.12-22.41-16.8V1540c10.47-1.08,18.64-10.07,18.64-21.01c0-1.54-0.16-3.05-0.48-4.5v-20.7
								h-302.95l5.1,34.67c0,0-4.86-4.43-4.86-5.87h205.66C3066.58,1532.31,3074.99,1539.64,3085.08,1539.64z M3109.15,1842.43
								v-305.67h10.38v305.26C3115.97,1841.84,3112.5,1842,3109.15,1842.43z"/>
						</g>
					</g>
					<g>
						<path class="st3" d="M2939.27,1549.47h60.17v303.35h-16.75v-287.99h-43.18C2939.51,1564.83,2939.86,1548.87,2939.27,1549.47z"
							/>
						<path class="st3" d="M3014.07,1549.47h60.17v303.35h-16.75v-287.99h-43.18C3014.3,1564.83,3014.66,1548.87,3014.07,1549.47z"
							/>
					</g>
				</g>
			</g>
			<g>
				<rect x="2258.4" y="1480.97" class="st3" width="33.89" height="402.3"/>
				<rect x="2786.41" y="1461.3" class="st3" width="33.89" height="402.3"/>
			</g>
		</g>
		<g>
			<g>
				<g>
					<g>
						<g>
							<path class="st4" d="M2505.29,1713.53l14.23,8.61l-0.01,0.06l19.2,11.61l52.96,32.16l24.71,15.06l16.33,9.89
								c5.98-17.52,13.77-34.7,22.97-51.04c26.02-46.34,63.86-86.84,107.1-113.82c0,0,0,0,0.05,0c1.14-0.71,2.21-1.36,3.29-2.01
								c4.96-3.05,10-5.86,15.07-8.49c-2.59-3.29-5.17-6.58-7.82-9.87c-45.71-57.03-99.09-106.17-162.91-139.85
								c-1.61,2.11-3.23,4.28-4.79,6.45C2552.7,1544.3,2515.97,1629.2,2505.29,1713.53z"/>
							<path class="st4" d="M2637.19,1803.24l-25.08-15.18l-24.73-15.07l-52.95-32.15l-23.99-14.5l0.01-0.06l-14-8.47l0.67-5.31
								c5.33-42.12,17.08-84.99,34.91-127.4c17.31-41.17,39.85-80.76,66.99-117.67c1.53-2.11,3.18-4.33,4.9-6.59l4.22-5.54
								l6.16,3.25c31.13,16.43,61.35,37.37,89.82,62.25c26.06,22.77,51.52,49.59,75.67,79.73c2.49,3.09,4.96,6.23,7.36,9.27
								l6.66,8.46l-8.82,4.58c-5.26,2.73-10.02,5.41-14.56,8.2l-0.31,0.19c-0.95,0.57-1.91,1.15-2.92,1.79l-1.95,1.2
								c-40.96,26.05-77.27,64.92-102.4,109.68c-9.11,16.18-16.63,32.89-22.36,49.67L2637.19,1803.24z M2528.57,1718.06l14.4,8.7
								l52.97,32.17l24.72,15.06l7.72,4.67c5.51-14.5,12.27-28.87,20.13-42.84c26.84-47.81,65.88-89.28,109.92-116.77l1.91-1.19
								l0.08,0c0.4-0.25,0.8-0.49,1.2-0.73l0.22-0.13c2.22-1.36,4.49-2.7,6.83-4.03c-0.57-0.71-1.14-1.42-1.71-2.13
								c-47.87-59.73-98.36-103.76-154.15-134.4c-0.16,0.22-0.32,0.44-0.47,0.65l-0.04,0.06c-52.41,71.26-87.14,153.48-98.14,232.13
								l14.42,8.72L2528.57,1718.06z"/>
						</g>
						<g class="st5">
							<path class="st4" d="M2519.51,1722.14l-0.01,0.06l19.2,11.61c10.55-28.5,29.87-43.47,47.54-34.55
								c14.3,7.29,15.73,34.08,9.87,54.59c-1.17,4-2.68,8.08-4.45,12.12l24.71,15.06c25.74-80.49,60.49-124.13,83.62-145.99
								c-9.82-9.65-7.65-28.36,4.43-40c-19.9-20.13-51.07-50.02-77.29-67.94c-8.83,13.34-24.82,18.34-35.41,11.06
								C2543.33,1611.4,2524.4,1696.6,2519.51,1722.14z M2604.34,1603.83c14.17-21.19,28.7-23.54,38.99-11.68
								c6.98,8.04,1.8,22.05-6.02,33.74c-7.82,11.69-21.78,23.28-31.84,19.84C2593.12,1641.5,2591.58,1622.91,2604.34,1603.83z"/>
							<path class="st4" d="M2621.03,1793.49l-39.8-24.25l2.9-6.6c1.66-3.76,3.03-7.5,4.08-11.11c5.58-19.53,2.92-40.55-5.71-44.95
								c-4.05-2.04-8.12-2.22-12.42-0.53c-9.04,3.55-17.88,14.99-23.66,30.6l-3.46,9.34l-32.52-19.66l0.99-5.75
								c2.61-13.64,8.69-41.56,20.08-75.2c14.3-42.24,32.25-79.85,53.35-111.78l4.62-7l6.91,4.75c3.21,2.21,6.86,2.1,9.35,1.61
								c5.49-1.07,10.92-4.96,14.54-10.43l4.61-6.97l6.9,4.71c26.33,17.99,57.22,47.42,78.5,68.95l5.86,5.93l-6.01,5.78
								c-5.03,4.85-8.06,11.57-8.09,17.99c-0.02,4.21,1.3,7.83,3.72,10.21l6.09,5.99l-6.21,5.87
								c-23.44,22.14-56.6,64.83-81.44,142.51L2621.03,1793.49z M2601.9,1762.56l9.91,6.04c23.73-69.53,54.08-110.94,77.37-134.5
								c-2.37-4.47-3.62-9.68-3.59-15.24c0.04-8.24,2.77-16.43,7.67-23.39c-18.6-18.54-42.9-41.35-64.61-57.23
								c-5.57,5.63-12.47,9.48-19.77,10.9c-4.87,0.95-9.68,0.74-14.1-0.55c-41.69,65.81-60.12,140.6-66.08,169.55l6.12,3.7
								c7.46-15.65,17.64-26.54,29.24-31.1c8.67-3.41,17.62-3,25.89,1.17c9.14,4.66,14.99,14.53,16.94,28.55
								c1.52,10.96,0.48,23.95-2.86,35.64C2603.4,1758.25,2602.69,1760.4,2601.9,1762.56z M2609.24,1654.57
								c-2.18,0-4.33-0.33-6.43-1.05c-6.68-2.29-11.66-7.41-14.03-14.41c-3.77-11.16-0.51-26.06,8.72-39.85
								c9.49-14.19,19.77-21.73,30.54-22.41c5.58-0.35,13.85,1.08,21.51,9.91c8.56,9.86,6.59,25.79-5.39,43.71
								C2635.82,1642.94,2622.1,1654.57,2609.24,1654.57z M2629.64,1593.26c-0.23,0-0.42,0.01-0.57,0.02
								c-5.15,0.32-11.67,5.84-17.89,15.13l0,0c-7.55,11.28-8.38,20.75-6.8,25.43c0.96,2.86,2.61,3.71,3.76,4.11
								c0.37,0.13,0.79,0.19,1.26,0.19c4.81,0,14.29-6.67,21.08-16.82c6.99-10.45,9.72-20.22,6.64-23.77
								C2633.76,1593.68,2631.01,1593.26,2629.64,1593.26z"/>
						</g>
						<g class="st5">
							<path class="st4" d="M2761.38,1614.08L2761.38,1614.08c-13.62-26.06-54.37-87.53-155.7-141.8c1.57-2.17,3.18-4.34,4.79-6.45
								c67.48,35.6,123.28,88.45,170.74,149.71c-5.07,2.63-10.1,5.44-15.07,8.49c-1.07,0.65-2.15,1.29-3.29,2.01
								c-0.05,0-0.05,0-0.05,0c-43.24,26.99-81.09,67.48-107.1,113.82C2655.68,1739.86,2667.21,1683.31,2761.38,1614.08z"/>
							<path class="st4" d="M2637.11,1789.75l10.51-51.53c0.49-2.39,12.74-58.11,103.1-126.46c-15.5-26.94-56.4-82.67-148.93-132.23
								l-8.3-4.44l5.51-7.63c1.53-2.12,3.19-4.35,4.92-6.62l4.22-5.54l6.16,3.25c32.84,17.33,64.64,39.66,94.52,66.38
								c27.18,24.31,53.72,53.1,78.88,85.57l6.04,7.8l-8.75,4.55c-5.26,2.73-10.02,5.41-14.56,8.2l-0.31,0.19
								c-0.95,0.57-1.91,1.15-2.92,1.79l-1.95,1.2c-40.96,26.05-77.27,64.92-102.4,109.68L2637.11,1789.75z"/>
						</g>
					</g>
					<g>
						<g>
							<path class="st4" d="M2548.72,1741.25l5.99,11.66l-0.03,0.04l8.1,15.72l22.27,43.48l10.37,20.32l6.88,13.39
								c11.25-9.29,23.58-17.61,36.52-24.78c36.62-20.36,78.76-31.92,118.95-32.16c0,0,0,0,0.04,0.02c1.06-0.01,2.05,0,3.04,0.01
								c4.59,0.01,9.13,0.2,13.63,0.53c-0.38-3.28-0.76-6.56-1.18-9.86c-7.13-57.18-22.67-112.23-51.6-161.22
								c-1.95,0.75-3.94,1.54-5.88,2.35C2650.48,1647.21,2590.74,1689.04,2548.72,1741.25z"/>
							<path class="st4" d="M2599.66,1858.71l-11.56-22.48l-10.38-20.34l-22.27-43.47l-10.62-20.63l0.03-0.04l-5.91-11.49l3.35-4.17
								c21.09-26.2,46.8-50.24,76.43-71.44c28.75-20.57,60.36-37.91,93.95-51.52c1.83-0.76,3.81-1.55,6.05-2.42l6.5-2.51l3.55,6
								c14.18,24.01,25.87,50.69,34.75,79.28c8.12,26.15,14.15,54.78,17.93,85.11c0.42,3.3,0.8,6.63,1.18,9.85l1.15,9.96l-9.92-0.72
								c-4.62-0.34-8.88-0.5-13.04-0.51l-0.07,0c-0.94-0.01-1.89-0.02-2.9-0.01l-2.09,0.01l-0.02-0.01
								c-37.89,0.61-77.91,11.63-112.93,31.1c-12.71,7.05-24.58,15.11-35.28,23.94L2599.66,1858.71z M2564.53,1754.11l5.56,10.8
								l22.28,43.49l10.38,20.33l2.3,4.48c9.29-7.02,19.27-13.5,29.78-19.33c38.03-21.15,81.67-32.94,122.89-33.2l2.08-0.01
								l0.06,0.03c0.34,0,0.68,0.01,1.03,0.01c1.41,0,2.82,0.02,4.25,0.06c0-0.04-0.01-0.08-0.02-0.12
								c-7.36-59.05-22.75-108.84-47-151.96c-63.66,25.93-120.1,66.13-159.62,113.61l6.06,11.78L2564.53,1754.11z"/>
						</g>
						<g class="st5">
							<path class="st4" d="M2554.71,1752.91l-0.03,0.04l8.1,15.72c18.86-14.78,38.02-16.85,46.19-3.55
								c6.59,10.8-3.52,29.39-15.93,40.73c-2.44,2.21-5.14,4.32-8,6.3l10.37,20.32c50.55-43.41,91.91-58.35,116.47-63.47
								c-2.61-10.54,6.58-22.21,19.5-25.03c-5.04-21.74-13.63-54.69-23.82-77.55c-11.44,5.31-24.24,2.06-28.35-7.21
								C2616.46,1688.39,2568.54,1737.78,2554.71,1752.91z M2660.56,1708.52c18.27-8.37,29-3.95,31.01,8.27
								c1.36,8.28-7.9,15.55-17.98,20.17c-10.08,4.62-24.24,6.63-29.57,0.16C2637.46,1729.18,2644.11,1716.06,2660.56,1708.52z"/>
							<path class="st4" d="M2592.85,1845.53l-18.4-36.05l5.92-4.1c2.62-1.81,5.03-3.71,7.16-5.63
								c10.85-9.92,17.88-24.68,14.42-30.34c-1.59-2.59-3.87-4.13-6.94-4.68c-7.05-1.26-17.21,2.63-27.15,10.43l-7.84,6.14
								l-15.19-29.5l3.81-4.43c7.42-8.12,23.09-24.41,44.73-42.36c27.17-22.55,54.89-40.46,82.39-53.25l7.6-3.53l3.39,7.67
								c1,2.26,3.07,3.43,4.63,4.02c3.7,1.39,8.45,1.04,12.72-0.95l7.58-3.52l3.4,7.63c10.31,23.11,18.92,55.74,24.32,79.04
								l1.88,8.12l-8.14,1.78c-4.94,1.08-9.33,4.05-11.76,7.95c-0.87,1.4-2.22,4.17-1.51,7.06l2.05,8.29l-8.36,1.74
								c-24.68,5.14-64.29,20-112.79,61.65L2592.85,1845.53z M2595.52,1814.57l2.53,4.96c43.48-35.52,80.12-50.66,105.33-57.01
								c0.45-3.84,1.81-7.67,4.03-11.24c3.37-5.41,8.36-9.78,14.26-12.61c-4.68-19.36-11.2-43.23-18.77-62.12
								c-5.93,1.18-11.96,0.78-17.32-1.24c-3.48-1.31-6.53-3.26-9-5.7c-53.46,26.4-95.52,67.38-111.94,84.71l1.15,2.23
								c11.3-6.92,22.47-9.76,32.12-8.03c7.73,1.39,13.98,5.63,18.07,12.29c9.06,14.85-1.89,36.95-17.38,51.12
								C2597.61,1812.82,2596.58,1813.7,2595.52,1814.57z M2655.43,1749.47c-9.79,0-15.05-3.8-17.78-7.11
								c-3.89-4.72-5.25-10.75-3.82-16.97c2.2-9.57,10.91-18.67,23.29-24.35l0,0c12.76-5.85,23.29-6.65,31.31-2.38
								c4.24,2.26,9.64,7,11.25,16.8c1.81,10.99-6.46,21.55-22.68,28.98c-6.23,2.85-13.37,4.67-19.58,4.98
								C2656.74,1749.45,2656.08,1749.47,2655.43,1749.47z M2676.91,1712.46c-2.66,0-6.8,0.74-12.92,3.55l0,0
								c-9.16,4.19-13.32,9.66-14.11,13.07c-0.35,1.54,0.04,2.29,0.48,2.81c0.29,0.35,2.06,1.3,6.25,1.09
								c4.15-0.21,9.21-1.52,13.55-3.5c9.72-4.45,13.62-9.32,13.29-11.35c-0.63-3.81-2.22-4.66-2.74-4.94
								C2680.2,1712.92,2679.02,1712.46,2676.91,1712.46z"/>
						</g>
						<g class="st5">
							<path class="st4" d="M2761.76,1780.29L2761.76,1780.29c1.63-23.13-0.34-81.24-45.95-159.55c1.95-0.81,3.93-1.6,5.88-2.35
								c30.59,51.79,46.22,110.34,52.78,171.08c-4.49-0.33-9.04-0.52-13.63-0.53c-0.99-0.01-1.98-0.02-3.04-0.01
								c-0.04-0.02-0.04-0.02-0.04-0.02c-40.18,0.25-82.33,11.8-118.95,32.16C2638.82,1821.07,2669.93,1787.87,2761.76,1780.29z"/>
							<path class="st4" d="M2596.85,1853.83l35.96-38.38c1.32-1.41,32.65-33.85,121.05-42.7c0.49-24.98-4.57-78.18-45.16-147.87
								l-4.73-8.13l8.68-3.61c1.84-0.77,3.83-1.56,6.08-2.43l6.5-2.51l3.55,6c14.96,25.32,27.14,53.59,36.2,84.02
								c8.24,27.65,14.18,58.06,17.67,90.36l1.06,9.81l-9.84-0.72c-4.62-0.34-8.88-0.5-13.04-0.51l-0.07,0
								c-0.94-0.01-1.89-0.01-2.9-0.01l-2.09,0.01l-0.02-0.01c-37.89,0.61-77.91,11.63-112.93,31.1L2596.85,1853.83z"/>
						</g>
					</g>
				</g>
				<g>
					<g>
						
							<linearGradient id="SVGID_1_" gradientUnits="userSpaceOnUse" x1="3603.8149" y1="2313.8193" x2="3660.4238" y2="2432.9614" gradientTransform="matrix(-0.997 -0.0784 -0.0784 0.997 6413.0454 -384.7514)">
							<stop  offset="0" style="stop-color:#76B200"/>
							<stop  offset="0.8137" style="stop-color:#4C8B00"/>
							<stop  offset="1" style="stop-color:#3B7500"/>
						</linearGradient>
						<path class="st6" d="M2506.66,1715.01l14.23,8.61l-0.01,0.06l19.2,11.61l52.96,32.16l24.71,15.06l16.33,9.89
							c5.98-17.52,13.77-34.7,22.97-51.04c26.02-46.34,63.86-86.84,107.1-113.82c0,0,0,0,0.05,0c1.14-0.71,2.21-1.36,3.29-2.01
							c4.97-3.05,10-5.86,15.07-8.49c-2.59-3.29-5.18-6.58-7.82-9.87c-45.71-57.03-99.09-106.17-162.91-139.85
							c-1.61,2.11-3.23,4.28-4.79,6.45C2554.08,1545.78,2517.34,1630.67,2506.66,1715.01z"/>
						
							<linearGradient id="SVGID_00000107578656338733726400000001798424578705472191_" gradientUnits="userSpaceOnUse" x1="3612.3142" y1="2224.3433" x2="3718.0974" y2="2461.7676" gradientTransform="matrix(-0.9984 -0.0566 -0.0566 0.9984 6392.6143 -456.2645)">
							<stop  offset="0" style="stop-color:#9FE700"/>
							<stop  offset="1" style="stop-color:#649500"/>
						</linearGradient>
						<path style="opacity:0.31;fill:url(#SVGID_00000107578656338733726400000001798424578705472191_);" d="M2520.89,1723.62
							l-0.01,0.06l19.2,11.61c10.55-28.5,29.87-43.47,47.54-34.54c14.3,7.29,15.73,34.08,9.87,54.59c-1.17,4-2.68,8.08-4.45,12.12
							l24.71,15.06c25.74-80.49,60.49-124.13,83.62-145.99c-9.82-9.65-7.65-28.36,4.43-40c-19.9-20.13-51.07-50.02-77.29-67.94
							c-8.83,13.34-24.82,18.34-35.41,11.06C2544.7,1612.88,2525.77,1698.08,2520.89,1723.62z M2605.71,1605.31
							c14.17-21.19,28.7-23.54,38.99-11.68c6.98,8.04,1.8,22.05-6.02,33.74c-7.82,11.69-21.78,23.28-31.84,19.84
							C2594.5,1642.98,2592.95,1624.39,2605.71,1605.31z"/>
						<path class="st8" d="M2762.75,1615.56L2762.75,1615.56c-13.61-26.06-54.37-87.53-155.7-141.8c1.57-2.17,3.18-4.34,4.79-6.45
							c67.48,35.6,123.28,88.45,170.74,149.71c-5.07,2.63-10.1,5.44-15.07,8.49c-1.07,0.65-2.15,1.29-3.29,2.01
							c-0.05,0-0.05,0-0.05,0c-43.24,26.99-81.09,67.48-107.1,113.82C2657.06,1741.34,2668.58,1684.78,2762.75,1615.56z"/>
					</g>
					<g>
						
							<linearGradient id="SVGID_00000057114133756102795340000018081350202527147960_" gradientUnits="userSpaceOnUse" x1="2429.4023" y1="3373.3638" x2="2474.0361" y2="3467.3022" gradientTransform="matrix(-0.808 -0.5893 -0.5893 0.808 6620.7134 452.5436)">
							<stop  offset="0" style="stop-color:#76B200"/>
							<stop  offset="0.8137" style="stop-color:#4C8B00"/>
							<stop  offset="1" style="stop-color:#3B7500"/>
						</linearGradient>
						<path style="fill:url(#SVGID_00000057114133756102795340000018081350202527147960_);" d="M2550.09,1742.73l5.99,11.66
							l-0.03,0.04l8.1,15.72l22.27,43.48l10.37,20.32l6.88,13.39c11.25-9.29,23.58-17.61,36.52-24.78
							c36.62-20.36,78.76-31.91,118.95-32.16c0,0,0,0,0.04,0.02c1.06-0.01,2.05,0,3.04,0.01c4.59,0.01,9.13,0.2,13.63,0.53
							c-0.38-3.28-0.76-6.56-1.18-9.86c-7.13-57.18-22.67-112.23-51.6-161.22c-1.95,0.75-3.94,1.54-5.88,2.35
							C2651.86,1648.69,2592.11,1690.52,2550.09,1742.73z"/>
						
							<linearGradient id="SVGID_00000156580391759618225630000005430818762277125542_" gradientUnits="userSpaceOnUse" x1="2463.9651" y1="3326.251" x2="2547.3623" y2="3513.4316" gradientTransform="matrix(-0.8206 -0.5715 -0.5715 0.8206 6640.1709 380.6383)">
							<stop  offset="0" style="stop-color:#9FE700"/>
							<stop  offset="1" style="stop-color:#649500"/>
						</linearGradient>
						<path style="opacity:0.31;fill:url(#SVGID_00000156580391759618225630000005430818762277125542_);" d="M2556.08,1754.39
							l-0.03,0.04l8.1,15.72c18.86-14.78,38.02-16.85,46.19-3.55c6.59,10.8-3.52,29.39-15.93,40.73c-2.44,2.21-5.14,4.32-8,6.3
							l10.37,20.32c50.55-43.41,91.91-58.35,116.47-63.47c-2.61-10.54,6.58-22.21,19.5-25.03c-5.04-21.74-13.63-54.69-23.82-77.55
							c-11.44,5.31-24.24,2.06-28.35-7.21C2617.84,1689.87,2569.92,1739.26,2556.08,1754.39z M2661.93,1710
							c18.27-8.37,29-3.95,31.01,8.27c1.36,8.28-7.9,15.55-17.98,20.17c-10.08,4.62-24.24,6.63-29.57,0.16
							C2638.83,1730.66,2645.48,1717.54,2661.93,1710z"/>
						<path class="st8" d="M2763.14,1781.77L2763.14,1781.77c1.62-23.13-0.34-81.24-45.95-159.55c1.95-0.81,3.93-1.6,5.88-2.35
							c30.59,51.79,46.22,110.34,52.78,171.08c-4.49-0.33-9.04-0.52-13.63-0.53c-0.99-0.01-1.98-0.02-3.04-0.01
							c-0.04-0.02-0.04-0.02-0.04-0.02c-40.18,0.25-82.33,11.8-118.95,32.16C2640.19,1822.55,2671.3,1789.35,2763.14,1781.77z"/>
					</g>
				</g>
			</g>
			<g id="CUSTOM-group_00000022552445991873517960000013696665163256845746_">
				<polygon class="st11" points="2460.89,1643.71 2427.69,1610.62 2285.26,1729.81 2432.95,1915.51 2440.82,1914.99 
					2453.07,1927.79 2617.02,1845.11 2621.69,1832.94 2512.05,1623.8 2500.72,1622.72 				"/>
				<path class="st12" d="M2506.41,1791.62l-72.89,37.99c-2.48,1.29-3.45,4.36-2.15,6.84c1.29,2.48,4.36,3.45,6.84,2.15l72.89-37.99
					c2.48-1.29,3.45-4.36,2.15-6.84C2511.95,1791.29,2508.89,1790.33,2506.41,1791.62z"/>
				<path class="st12" d="M2452.67,1866.35l60.23-31.39c2.48-1.29,3.45-4.36,2.15-6.84c-1.29-2.48-4.36-3.45-6.84-2.15l-60.23,31.39
					c-2.48,1.29-3.45,4.36-2.15,6.84C2447.12,1866.68,2450.18,1867.65,2452.67,1866.35z"/>
				<path class="st12" d="M2535.32,1847.1l-72.89,37.99c-2.48,1.29-3.45,4.36-2.15,6.84c1.29,2.48,4.36,3.45,6.84,2.15l72.89-37.99
					c2.48-1.29,3.45-4.36,2.15-6.84C2540.87,1846.77,2537.81,1845.81,2535.32,1847.1z"/>
				<path class="st12" d="M2492.12,1663.08l-104.77,55.86c-3.57,1.9-5.7,4.88-4.75,6.65c0.94,1.77,4.6,1.66,8.17-0.24l104.77-55.86
					c3.57-1.9,5.7-4.88,4.75-6.65C2499.35,1661.07,2495.69,1661.18,2492.12,1663.08z"/>
				<path class="st12" d="M2401.32,1745.14l86.57-46.16c3.57-1.9,5.7-4.88,4.75-6.65c-0.94-1.77-4.6-1.66-8.17,0.24l-86.57,46.16
					c-3.57,1.9-5.7,4.88-4.75,6.65C2394.09,1747.15,2397.75,1747.04,2401.32,1745.14z"/>
				<path class="st12" d="M2513.21,1702.64l-104.77,55.86c-3.57,1.9-5.7,4.88-4.75,6.65c0.94,1.77,4.6,1.66,8.17-0.24l104.77-55.86
					c3.57-1.9,5.7-4.88,4.75-6.65C2520.44,1700.63,2516.78,1700.74,2513.21,1702.64z"/>
				<path class="st12" d="M2551.59,1768.07l-12.74,6.64c-2.48,1.29-3.45,4.36-2.15,6.84c1.29,2.48,4.36,3.45,6.84,2.15l12.74-6.64
					c2.48-1.29,3.45-4.36,2.15-6.84C2557.13,1767.74,2554.07,1766.78,2551.59,1768.07z"/>
				<path class="st12" d="M2566.05,1795.82l-12.74,6.64c-2.48,1.29-3.45,4.36-2.15,6.84c1.29,2.48,4.36,3.45,6.84,2.15l12.74-6.64
					c2.48-1.29,3.45-4.36,2.15-6.84C2571.6,1795.49,2568.53,1794.53,2566.05,1795.82z"/>
				<path class="st12" d="M2580.51,1823.56l-12.74,6.64c-2.48,1.29-3.45,4.36-2.15,6.84c1.29,2.48,4.36,3.45,6.84,2.15l12.74-6.64
					c2.48-1.29,3.45-4.36,2.15-6.84C2586.05,1823.22,2582.99,1822.26,2580.51,1823.56z"/>
				<path class="st4" d="M2498.08,1619.78l-155.48,81.04c-6.95,3.62-9.66,12.22-6.05,19.16l106.87,205.04
					c3.62,6.94,12.22,9.64,19.17,6.02l155.48-81.04c6.95-3.62,9.66-12.22,6.05-19.16l-106.87-205.04
					C2513.63,1618.85,2505.03,1616.15,2498.08,1619.78z M2347.29,1709.81l155.48-81.04c1.96-1.02,4.47-0.24,5.49,1.71l39.76,76.27
					l-162.71,84.8l-39.76-76.27C2344.53,1713.34,2345.33,1710.83,2347.29,1709.81z M2559.34,1728.5l-162.71,84.8l-6.65-12.75
					l162.71-84.8L2559.34,1728.5z M2613.39,1841.01l-155.48,81.04c-1.96,1.02-4.47,0.24-5.49-1.71l-51.1-98.03l162.71-84.8
					l51.1,98.03C2616.14,1837.48,2615.34,1839.99,2613.39,1841.01z"/>
				<path class="st12" d="M2369.39,1722.01l0.28-0.15c2.48-1.29,3.45-4.36,2.15-6.84c-1.29-2.48-4.36-3.45-6.84-2.15l-0.28,0.15
					c-2.48,1.29-3.45,4.36-2.15,6.84C2363.85,1722.35,2366.91,1723.31,2369.39,1722.01z"/>
				<path class="st12" d="M2499.83,1654.03l0.28-0.15c2.48-1.29,3.45-4.36,2.15-6.84c-1.29-2.48-4.36-3.45-6.84-2.15l-0.28,0.15
					c-2.48,1.29-3.45,4.36-2.15,6.84C2494.28,1654.36,2497.35,1655.32,2499.83,1654.03z"/>
				<path class="st4" d="M2420.38,1608.28l-135.8,110.89c-6.08,4.97-6.98,13.92-2.05,20l146.25,179.09
					c3.55,4.36,9.16,6.04,14.27,4.83l-5.65-10.54l-0.02-0.02c-0.29-0.19-0.54-0.41-0.74-0.67l-69.92-85.63l17.69-14.44l-4.79-9.18
					l-19.31,15.76l-9.09-11.13l21.61-17.65l-4.79-9.18l-23.23,18.97l-54.41-66.63c-1.4-1.7-1.12-4.32,0.58-5.72l135.8-110.89
					c1.72-1.38,4.34-1.14,5.72,0.58l21.32,26.13l9.2-4.81l-22.64-27.75C2435.43,1604.23,2426.44,1603.33,2420.38,1608.28z"/>
			</g>
		</g>
	</g>
	<g>
		<g>
			<g>
				<path class="st13" d="M1583.74,1605.2c24.62-0.73,44.76,5.13,60.4,17.6c16.59,13.36,25.25,32.19,25.97,56.51
					c0.12,4.07,0.07,10.21-0.14,18.41c-0.21,8.2-0.26,14.34-0.14,18.41c0.13,4.38,2.08,6.51,5.84,6.39c4.68-0.14,11.64-0.8,20.87-2
					c9.23-1.19,16.14-1.85,20.71-1.99c2.34-0.07,3.54,0.96,3.61,3.1c0.18,6.21,0.28,15.52,0.3,27.94
					c0.01,12.42,0.11,21.74,0.3,27.94c0.09,2.95-1.34,4.47-4.29,4.56c-11.29,0.34-28.26,0.66-50.91,0.98
					c-22.65,0.32-39.62,0.64-50.91,0.98c-31.95,0.95-65.48,3.32-100.6,7.12l-2.13,0.22c-1.93,0.26-3.14-1.23-3.65-4.47
					c-1.25-7.91-2.28-25.39-3.09-52.45c-0.48-15.97-0.73-31.29-0.76-45.95c-0.01-24.13,7-43.79,21-58.98
					C1540.52,1614.03,1559.73,1605.92,1583.74,1605.2z M1587.99,1666.02c-23.71,0.71-35.21,12.61-34.53,35.7
					c0.48,16.28,1.65,24.8,3.51,25.56c1.34,0.67,13.11,0.68,35.29,0.02c3.15-0.09,7.81-0.36,13.95-0.8c6.15-0.44,10.8-0.7,13.95-0.8
					c2.04-0.06,2.78-9.25,2.23-27.56C1621.74,1676.07,1610.28,1665.36,1587.99,1666.02z"/>
				<path class="st13" d="M1787.67,1316.11c3,0.97,4.05,2.86,3.15,5.66l-16.55,51.45c-0.9,2.81-3.05,3.67-6.44,2.58
					c-9.79-3.15-24.35-8.23-43.69-15.26c-19.34-7.02-33.9-12.11-43.69-15.26c-2.81-0.9-4.45-0.95-4.93-0.14
					c0.24,1.25,13.12,12.56,38.64,33.93c15,12.53,29.96,25.04,44.86,37.53c1.92,1.69,2.83,3.32,2.76,4.9
					c-0.06,0.52-0.63,2.47-1.73,5.86c-1.62,5.04-3.56,7.73-5.81,8.08c-12.34,1.8-30.06,3.7-53.15,5.67
					c-24.44,2.19-42.19,4.02-53.25,5.48c-0.55,0.04-1.22,0.3-2.02,0.79c0.65,0.96,1.95,1.75,3.89,2.37
					c9.5,3.06,23.82,7.4,42.96,13.02c19.15,5.63,33.47,9.97,42.96,13.02c3.39,1.09,4.65,2.99,3.78,5.71l-15.62,48.54
					c-0.62,1.94-1.32,3.02-2.09,3.26c-0.77,0.23-1.93,0.1-3.48-0.4c-10.56-3.4-26.26-9.01-47.11-16.84
					c-20.84-7.83-36.55-13.44-47.11-16.84c-11.24-3.62-32.47-9.91-63.69-18.89c-8.07-2.49-20.18-5.9-36.32-10.24l-2.52-0.65
					c-1.97-0.53-2.28-2.87-0.94-7.04c1.71-5.33,4.12-13.38,7.21-24.15c3.09-10.77,5.49-18.82,7.21-24.14
					c0.34-1.07,2.86-1.91,7.55-2.54l106.82-12.46c7.27-0.97,11.22-2.48,11.88-4.52c0.34-1.06-2.56-4.51-8.7-10.34
					c-17.2-16.33-43.21-40.69-78.02-73.06c-3.25-2.86-4.56-5.26-3.94-7.2c0.9-2.81,2.41-7,4.53-12.58
					c2.11-5.57,3.64-9.82,4.57-12.72c0.78-2.42,1.73-6.2,2.85-11.35c1.12-5.15,2.07-8.93,2.85-11.35c0.94-2.91,2.57-3.99,4.89-3.24
					c11.43,3.68,28.38,9.59,50.84,17.72c22.46,8.14,39.4,14.04,50.84,17.72c10.56,3.4,26.54,8.06,47.95,13.98
					C1761.28,1308.1,1777.21,1312.74,1787.67,1316.11z"/>
				<path class="st13" d="M1939.32,1107.22c0.57,0.43,0.36,1.55-0.62,3.36c-1.84,3.46-7.46,11.4-16.84,23.83
					c-8.04,10.64-13.74,17.69-17.11,21.14c-1.59,1.6-2.56,2.47-2.91,2.59c-0.61,0.3-1.85,0.26-3.73-0.13
					c-4.09-1.17-10.15-2.94-18.18-5.31c-10.51-2.96-26.24-7.06-47.17-12.27c-4.27-0.93-8.56,1.12-12.88,6.16
					c2-2.31-1.08,1.93-9.23,12.73c-0.92,1.22,0.69,3.39,4.83,6.52c5.52,4.17,14.15,9.89,25.89,17.15
					c11.73,7.27,20.36,12.98,25.89,17.15c1.38,1.04,1.92,2.02,1.61,2.94c-0.78,1.2-1.56,2.4-2.33,3.6
					c-3.3,5.04-8.77,12.63-16.44,22.79c-8.77,11.62-14.29,18.42-16.56,20.41c-2.27,1.99-4.41,2.22-6.45,0.68
					c-8.93-6.75-22.1-17.35-39.49-31.82c-17.39-14.47-30.59-25.11-39.61-31.92c-34.36-25.94-61.75-45.41-82.17-58.4l-1.8-1.17
					c-1.44-0.96-1.41-2.95,0.1-5.95c1.5-3.01,10.39-15.78,26.64-38.33c11.02-15.27,19.91-27.38,26.65-36.31
					c13.98-18.52,29.58-30.47,46.77-35.85c19.42-6.12,38.03-2.47,55.82,10.96c11.86,8.96,20.04,17.81,24.53,26.55
					c4.49,8.75,6.6,20.23,6.33,34.44c-0.11,2.85,0.4,4.7,1.54,5.56c-0.08-0.06,13.85,2.68,41.81,8.23
					C1922.18,1102.05,1937.21,1105.62,1939.32,1107.22z M1791.39,1075.87c-9.91-7.48-19.23-9.41-27.95-5.8
					c-6.73,2.83-14.14,9.6-22.23,20.33c-5.83,7.72-7.75,12.71-5.76,14.97c2.39,2.57,10.17,8.83,23.33,18.76
					c1.87,1.41,4.66,3.46,8.38,6.13c3.72,2.68,6.47,4.69,8.26,6.04c0.41,0.31,1.79-0.68,4.16-2.98c4.47-4.4,8.76-9.33,12.87-14.77
					C1805.87,1100.77,1805.52,1086.54,1791.39,1075.87z"/>
				<path class="st13" d="M2087.15,933.48c2.59,3.53,6.66,10.52,12.2,20.97c6.06,11.34,9.24,18.41,9.54,21.22
					c0.16,2.28-0.62,4.06-2.34,5.32c-0.74,0.54-2.06,1.33-3.96,2.35c-6.59,3.58-24.36,16.02-53.3,37.31
					c-6.31,4.64-15.73,11.51-28.26,20.59c-12.53,9.08-21.9,15.92-28.13,20.5c-2.71,1.99-4.93,1.8-6.68-0.58
					c-6.75-9.18-16.39-23.35-28.9-42.52c-12.51-19.16-22.15-33.33-28.9-42.52c-6.88-9.35-20.18-26.41-39.92-51.19
					c-5.07-6.38-12.73-15.85-22.97-28.4l-1.39-1.63c-1.55-1.76-1.22-3.46,0.99-5.09c6.07-4.46,15.31-11.01,27.73-19.64
					c12.42-8.63,21.66-15.17,27.73-19.64c5.98-4.4,14.89-11.2,26.7-20.39c11.81-9.19,20.71-15.99,26.7-20.39
					c4.26-3.13,7.9-3.35,10.91-0.63c1.8,1.59,6.64,6.84,14.53,15.76c7.89,8.92,12.58,14.41,14.09,16.45
					c1.27,1.72,1.08,3.19-0.56,4.39c-0.49,0.36-1.38,0.95-2.67,1.78c-23.14,14.24-43.4,27.75-60.78,40.53
					c-4.35,3.2-6.26,6.18-5.73,8.95c0.31,1.29,2.43,4.59,6.35,9.92c4.1,5.58,7.63,8.66,10.6,9.26c2.54,0.53,5.78-0.65,9.71-3.54
					c0.82-0.6,2.37-1.84,4.66-3.71c2.29-1.87,4.21-3.38,5.77-4.53c10.33-7.6,20.58-15.57,30.73-23.93c0.84-0.74,2.94-2.61,6.31-5.59
					c2.55-2.38,4.64-4.17,6.28-5.38c1.97-1.45,3.65-1.23,5.03,0.66c-1.27-1.72,2.61,5.09,11.63,20.45
					c4.17,7.04,8.67,13.84,13.49,20.4c1.21,1.64,0.62,3.33-1.76,5.08l-11.97,6.91c-5.04,2.95-15.88,10.54-32.52,22.78l-13.04,9.59
					c-3.36,2.47-4.73,4.74-4.09,6.8c0.22,0.47,2.05,3.04,5.49,7.72c4.58,6.23,7.95,9.95,10.1,11.15c3.69,2.09,10.29,0.08,19.81-6.04
					c-0.17,0.12,5.82-4.28,17.96-13.21c4.35-3.2,10.52-8.33,18.51-15.42c7.99-7.08,14.12-12.19,18.39-15.33
					C2082.99,929.71,2084.98,930.52,2087.15,933.48z"/>
				<path class="st13" d="M2331.88,846.65c0.55,1.53,0.27,3.91-0.85,7.12c-10.1,27.31-29.76,46.2-58.98,56.69
					c-29.89,10.72-57.79,9.22-83.7-4.52c-25.19-13.24-43.18-34.9-53.97-64.98c-10.45-29.12-10.46-57.02-0.02-83.69
					c10.86-27.9,30.56-46.98,59.11-57.22c31.04-11.14,58.8-10.33,83.27,2.41c2.67,1.42,4.3,2.95,4.89,4.57
					c0.65,1.82-0.25,9.77-2.72,23.85c-2.47,14.08-4.3,22.14-5.51,24.2c-0.49,1.04-1.31,1.77-2.46,2.18
					c-0.48,0.17-3.56-0.88-9.25-3.17c-6.82-2.74-13.19-4.51-19.1-5.31c-8.94-1.12-17.49-0.21-25.63,2.71
					c-14.08,5.05-23.45,14.36-28.1,27.92c-4.25,12.56-3.8,26.02,1.35,40.39c5.23,14.56,13.49,25.39,24.79,32.47
					c12.28,7.71,25.46,9.03,39.55,3.98c8.34-2.99,15.59-7.65,21.75-13.97c4.03-4.15,7.8-9.29,11.34-15.42
					c2.91-5.15,4.6-7.81,5.08-7.99c0.96-0.34,2.1-0.16,3.44,0.55c2.15,1.17,8.47,5.67,18.95,13.48
					C2325.91,841.01,2331.5,845.6,2331.88,846.65z"/>
				<path class="st13" d="M2561.02,812.46c0.26,4.37-0.13,12.45-1.17,24.23c-1.08,12.81-2.26,20.47-3.54,23
					c-1.11,2-2.73,3.07-4.86,3.19c-0.91,0.05-2.45-0.01-4.6-0.19c-7.48-0.58-29.15,0.19-65.02,2.3c-7.83,0.46-19.46,1.1-34.91,1.91
					c-15.45,0.81-27.04,1.44-34.76,1.9c-3.35,0.2-5.12-1.17-5.29-4.12c-0.67-11.38-1.05-28.51-1.12-51.4
					c-0.08-22.89-0.45-40.02-1.12-51.4c-0.68-11.58-2.57-33.14-5.65-64.67c-0.78-8.11-2.06-20.22-3.82-36.33l-0.28-2.13
					c-0.34-2.32,0.86-3.57,3.6-3.73c7.52-0.44,18.84-0.9,33.95-1.39c15.11-0.48,26.43-0.95,33.95-1.39
					c7.42-0.44,18.58-1.3,33.5-2.59c14.91-1.29,26.08-2.15,33.5-2.59c5.28-0.31,8.45,1.49,9.5,5.41c0.65,2.31,1.85,9.35,3.62,21.12
					c1.76,11.77,2.72,18.93,2.87,21.47c0.13,2.13-0.83,3.26-2.86,3.38c-0.61,0.04-1.68,0.05-3.21,0.04
					c-27.16-0.64-51.51-0.33-73.05,0.94c-5.39,0.32-8.61,1.78-9.68,4.4c-0.44,1.25-0.46,5.18-0.07,11.78
					c0.41,6.91,1.69,11.42,3.86,13.54c1.84,1.83,5.2,2.6,10.08,2.31c1.01-0.06,2.99-0.25,5.93-0.58c2.94-0.33,5.37-0.55,7.3-0.66
					c12.8-0.76,25.74-1.87,38.8-3.36c1.11-0.17,3.89-0.59,8.34-1.26c3.43-0.61,6.16-0.97,8.19-1.1c2.44-0.14,3.73,0.95,3.86,3.29
					c-0.13-2.13-0.58,5.69-1.37,23.48c-0.34,8.18-0.26,16.33,0.22,24.46c0.12,2.03-1.29,3.13-4.24,3.31l-13.81-0.72
					c-5.83-0.27-19.06,0.21-39.68,1.42l-16.16,0.95c-4.17,0.25-6.55,1.41-7.14,3.48c-0.07,0.52,0.06,3.67,0.4,9.46
					c0.46,7.72,1.26,12.67,2.41,14.85c1.95,3.76,8.59,5.66,19.91,5.71c-0.2,0.01,7.21-0.43,22.25-1.31
					c5.38-0.32,13.36-1.27,23.92-2.86c10.56-1.59,18.48-2.54,23.77-2.85C2559.58,807.04,2560.81,808.8,2561.02,812.46z"/>
				<path class="st13" d="M2714.78,768.88c-2.05,11.84-4.82,29.69-8.33,53.56c-3.51,23.87-6.29,41.73-8.33,53.56
					c-0.35,2.01-1.02,3.18-2,3.53c-0.22,0.07-1.56,0.04-4.02-0.07c-6.66-0.33-15.45-1.43-26.39-3.32
					c-14.65-2.53-23.9-4.55-27.77-6.04c-2.81-1.11-3.99-2.91-3.56-5.42c-0.28,1.61,1.7-7.14,5.93-26.24
					c8.83-40.31,14.35-66.83,16.55-79.57c1.86-10.73,4.29-26.89,7.3-48.48c3.01-21.58,5.44-37.74,7.3-48.48
					c0.38-2.21,1.72-3.11,4.03-2.71c3.11,0.54,7.77,1.5,13.99,2.88c6.22,1.38,10.88,2.35,13.99,2.88c3.11,0.54,7.72,1.18,13.84,1.93
					c6.12,0.75,10.73,1.39,13.84,1.93c2.91,0.5,4.17,1.86,3.79,4.06c-1.86,10.73-5.22,26.73-10.08,47.99
					C2719.99,742.15,2716.63,758.15,2714.78,768.88z"/>
				<path class="st13" d="M2996.16,849.6c-9.97,22.53-23.95,38.15-41.95,46.88c-19.21,9.2-39.94,8.87-62.18-0.97
					c-3.72-1.65-9.24-4.34-16.55-8.07c-7.31-3.74-12.82-6.43-16.55-8.07c-4-1.77-6.77-0.93-8.29,2.51
					c-1.9,4.28-4.3,10.84-7.21,19.68c-2.91,8.84-5.29,15.36-7.15,19.54c-0.95,2.14-2.4,2.78-4.35,1.91
					c-5.68-2.51-14.12-6.45-25.33-11.8c-11.21-5.35-19.66-9.28-25.33-11.8c-2.7-1.2-3.45-3.14-2.26-5.84
					c4.57-10.33,11.6-25.78,21.1-46.35c9.49-20.57,16.52-36.01,21.1-46.35c12.93-29.23,25.27-60.5,37.01-93.82l0.73-2.02
					c0.59-1.85,2.46-2.3,5.61-1.36c7.67,2.28,23.89,8.9,48.65,19.86c14.61,6.47,28.54,12.85,41.78,19.16
					c21.77,10.41,36.48,25.22,44.13,44.41C3006.86,806.81,3005.88,827.64,2996.16,849.6z M2939.47,827.18
					c9.6-21.69,3.83-37.21-17.3-46.56c-14.89-6.59-23.08-9.21-24.57-7.87c-1.19,0.92-6.27,11.53-15.25,31.82
					c-1.28,2.89-3.05,7.2-5.3,12.93c-2.26,5.74-4.03,10.05-5.3,12.93c-0.82,1.86,7.14,6.5,23.9,13.91
					C2915.83,853.29,2930.45,847.57,2939.47,827.18z"/>
				<path class="st13" d="M3220.98,978.84c-1.32,1.56-2.83,1.61-4.54,0.16c-2.96-2.5-14.16-12.97-33.62-31.41
					c-17.09,19.28-28.92,32.8-35.49,40.57c-7.75,9.17-19.05,23.28-33.88,42.33c-14.83,19.05-26.13,33.16-33.88,42.33
					c-1.25,1.48-2.39,2.11-3.41,1.91c-0.37-0.04-1.62-0.77-3.76-2.18c-5.19-3.32-12.29-8.79-21.31-16.41
					c-10.03-8.48-16.8-14.73-20.32-18.77c-1.85-2.23-1.92-4.35-0.21-6.37c7.75-9.17,19.77-22.61,36.05-40.3
					c16.28-17.69,28.3-31.12,36.05-40.3c5.12-6.06,16.25-19.85,33.36-41.37c-16.86-11.59-29.92-21.29-39.17-29.11
					c-1.24-1.05-1.54-1.96-0.88-2.74c0.85-1.01,3.93-3.54,9.22-7.6c5.84-4.39,9.33-7.1,10.48-8.14c3.32-3.46,6.68-6.88,10.08-10.27
					c5.47-5.37,8.87-7.5,10.19-6.38c0.16,0.13,0.67,0.63,1.53,1.5c11.21,12.28,29.14,28.83,53.79,49.66
					c7,5.91,20.52,16.08,40.59,30.5c10.76,7.76,16.18,11.68,16.26,11.74c1.55,1.31,2.37,2.17,2.44,2.56
					c0.07,0.39-0.42,1.28-1.46,2.67c-1.77,2.1-4.32,4.95-7.62,8.55c-3.64,3.99-6.18,6.84-7.62,8.55c-1.64,1.94-3.81,5.01-6.49,9.21
					C3224.68,973.95,3222.55,976.98,3220.98,978.84z"/>
				<path class="st13" d="M3273.45,1201.22c-16.75,12.11-36.2,15.43-58.35,9.97c-19.51-4.74-37.11-14.93-52.82-30.58
					c-0.56-0.6-0.99-1.11-1.29-1.52c-1.37-1.9,1.38-10.3,8.26-25.19c6.88-14.89,11.59-23.27,14.15-25.12
					c0.91-0.66,1.93-0.45,3.07,0.6c11.37,9.99,19.4,16.24,24.1,18.74c10.49,5.48,19.94,5.17,28.36-0.91
					c5.36-3.88,9.31-11,11.86-21.38c4.18-17.84,6.59-27.63,7.23-29.35c4.46-11.89,11.89-21.6,22.28-29.11
					c15.09-10.91,32.67-13.01,52.73-6.29c16.48,5.42,31.95,15.52,46.41,30.31c0.74,0.85,1.29,1.52,1.64,2.01
					c0.89,1.24,0.62,2.94-0.82,5.12c-4.47,6.5-11.75,19.36-21.84,38.59c-0.32,0.61-0.64,1.03-0.97,1.27
					c-1.4,1.01-2.64,0.78-3.71-0.71c-0.48-0.66-1.16-1.86-2.04-3.61c-0.89-1.75-1.63-3.03-2.22-3.86
					c-4.29-5.94-9.41-10.15-15.35-12.64c-7.01-3.1-13.32-2.61-18.93,1.44c-5.03,3.64-9.07,11.08-12.12,22.33
					c-5.62,20.02-8.59,30.51-8.89,31.49C3289.35,1185.26,3282.44,1194.72,3273.45,1201.22z"/>
				<path class="st13" d="M3311.02,1356.53c-9.17,4.17-18.45,4.55-27.82,1.15c-9.37-3.4-16.12-9.65-20.24-18.73
					c-4.13-9.08-4.35-18.26-0.68-27.53c3.67-9.27,10.05-15.96,19.13-20.09c9.08-4.12,18.3-4.51,27.65-1.15
					c9.35,3.36,16.09,9.57,20.21,18.66c4.12,9.08,4.38,18.27,0.78,27.57C3326.45,1345.69,3320.11,1352.4,3311.02,1356.53z"/>
				<path class="st13" d="M3429.85,1473.94c-11.64,2.96-29.08,7.7-52.31,14.22c-23.23,6.53-40.67,11.27-52.31,14.22
					c-1.97,0.5-3.32,0.37-4.04-0.39c-0.15-0.17-0.67-1.4-1.57-3.7c-2.42-6.21-4.99-14.7-7.72-25.45
					c-3.66-14.41-5.59-23.68-5.8-27.83c-0.13-3.01,1.03-4.83,3.5-5.46c-1.58,0.4,7.22-1.36,26.38-5.28
					c40.41-8.37,66.88-14.14,79.41-17.32c10.56-2.68,26.3-7.05,47.24-13.09c20.94-6.05,36.68-10.41,47.24-13.09
					c2.17-0.55,3.54,0.31,4.12,2.58c0.78,3.06,1.8,7.71,3.07,13.95c1.27,6.24,2.29,10.89,3.07,13.95c0.78,3.06,2.07,7.53,3.88,13.43
					c1.81,5.89,3.1,10.37,3.88,13.43c0.73,2.86,0,4.57-2.17,5.12c-10.56,2.68-26.54,6.13-47.94,10.35
					C3456.39,1467.81,3440.41,1471.26,3429.85,1473.94z"/>
				<path class="st13" d="M3443.94,1793.81c-31.76-0.38-58.25-10.83-79.48-31.34c-21.53-20.92-32.11-47.21-31.73-78.87
					c0.38-31.45,11.69-57.42,33.92-77.92c21.72-20.1,48.36-29.96,79.91-29.58c31.65,0.38,58.14,10.88,79.48,31.5
					c21.83,21.03,32.56,47.27,32.19,78.72c-0.38,31.24-11.73,57.17-34.07,77.77C3502.12,1784.28,3475.38,1794.19,3443.94,1793.81z
					 M3444.94,1735.95c15.27,0.18,28.3-4.29,39.1-13.42c11.31-9.53,17.06-21.83,17.24-36.89c0.17-14.35-5.48-26.58-16.96-36.7
					c-11.08-9.81-23.9-14.79-38.45-14.97c-15.57-0.19-28.6,4.18-39.09,13.12c-11.01,9.43-16.6,21.84-16.79,37.21
					c-0.17,14.35,5.43,26.63,16.81,36.85C3417.67,1730.84,3430.38,1735.78,3444.94,1735.95z"/>
			</g>
		</g>
		<g>
			<path class="st2" d="M3439.55,1871.8c-108.09,400.01-474.16,695.18-907.87,695.18c-433.72,0-799.79-295.17-907.88-695.18h-28.8
				c11.7,44.74,26.65,88.69,44.83,131.67c24.26,57.35,54.28,112.68,89.24,164.42c34.63,51.25,74.39,99.44,118.19,143.24
				c43.8,43.79,91.99,83.56,143.24,118.18c51.74,34.96,107.07,64.98,164.42,89.24c119.34,50.48,246.11,76.07,376.77,76.07
				c130.66,0,257.42-25.6,376.76-76.07c57.36-24.26,112.68-54.28,164.42-89.24c51.25-34.63,99.45-74.39,143.24-118.18
				c43.8-43.8,83.56-91.99,118.19-143.24c34.96-51.74,64.99-107.07,89.25-164.42c18.18-42.98,33.13-86.93,44.82-131.67H3439.55z"/>
		</g>
		<g>
			<polygon class="st0" points="2549.78,2083.43 2593.42,2217.75 2734.66,2217.75 2620.4,2300.77 2664.04,2435.09 2549.78,2352.08 
				2435.51,2435.09 2479.16,2300.77 2364.9,2217.75 2506.13,2217.75 			"/>
			<g>
				<polygon class="st0" points="2225.33,2175.04 2245.88,2238.31 2312.41,2238.31 2258.59,2277.41 2279.15,2340.68 
					2225.33,2301.57 2171.51,2340.68 2192.07,2277.41 2138.25,2238.31 2204.77,2238.31 				"/>
				<polygon class="st0" points="2874.23,2177.85 2894.79,2241.11 2961.31,2241.11 2907.49,2280.22 2928.05,2343.49 
					2874.23,2304.38 2820.41,2343.49 2840.97,2280.22 2787.15,2241.11 2853.67,2241.11 				"/>
			</g>
		</g>
	</g>
</g>
</svg>
